<?xml version="1.0" encoding="UTF-8" standalone="no"?>
<!-- Created with Inkscape (http://www.inkscape.org/) -->

<svg
   version="1.1"
   id="svg824"
   width="560"
   height="530"
   viewBox="0 0 532.90342 530"
   sodipodi:docname="logo_original_plain_small_thick.svg"
   inkscape:version="1.1.1 (3bf5ae0d25, 2021-09-20)"
   inkscape:export-filename="C:\Users\cesar\Desktop\ez_eats_logo_original.png"
   inkscape:export-xdpi="2000"
   inkscape:export-ydpi="2000"
   xmlns:inkscape="http://www.inkscape.org/namespaces/inkscape"
   xmlns:sodipodi="http://sodipodi.sourceforge.net/DTD/sodipodi-0.dtd"
   xmlns="http://www.w3.org/2000/svg"
   xmlns:svg="http://www.w3.org/2000/svg">
  <defs
     id="defs828" />
  <sodipodi:namedview
     id="namedview826"
     pagecolor="#000000"
     bordercolor="#666666"
     borderopacity="1.0"
     inkscape:pageshadow="2"
     inkscape:pageopacity="0"
     inkscape:pagecheckerboard="false"
     showgrid="true"
     inkscape:zoom="1.4142136"
     inkscape:cx="403.40442"
     inkscape:cy="356.02826"
     inkscape:window-width="2560"
     inkscape:window-height="1369"
     inkscape:window-x="-8"
     inkscape:window-y="-8"
     inkscape:window-maximized="1"
     inkscape:current-layer="g96967"
     viewbox-width="1182.2">
    <inkscape:grid
       type="xygrid"
       id="grid2445" />
  </sodipodi:namedview>
  <g
     inkscape:groupmode="layer"
     inkscape:label="Image"
     id="g830">
    <g
       id="g96967"
       transform="translate(-108.74739,-1094.5676)"
       style="stroke:#f5f5f5;stroke-opacity:1">
      <path
         style="fill:#f5f5f5;fill-opacity:1;stroke:#f5f5f5;stroke-width:3;stroke-linecap:butt;stroke-linejoin:miter;stroke-miterlimit:4;stroke-dasharray:none;stroke-opacity:1"
         d="m 111.21615,1139.4605 h 107.01567 v 85.0124 c -1.00018,2.0003 -3.00044,2.0003 -4.00058,0 2.3226,-80.1147 -29.66828,-79.144 -33.00484,-80.0117 h -29.00425 v 120.0176 h 19.00279 c 15.25136,-2.4794 21.00307,-17.0025 21.00307,-42.0062 1.00015,-1.0001 3.00044,-1.0001 4.00059,0 l 0.43925,90.1918 c 0,1.0001 -3.00043,2.0003 -4.00058,0 0,-23.0034 -5.43999,-39.1843 -21.44233,-43.1849 h -19.00279 v 132.0194 c 14.80913,0.01 19.22332,0.145 31.00455,0 16.00234,-1.0002 40.02752,-19.7118 39.00571,-82.012 1.00015,-2.0003 3.00044,-2.0003 4.00059,0 v 89.013 H 111.21615 c -2.79609,-2.0433 -2.0003,-6.0009 0,-7.001 h 14.00205 l -0.0191,-256.9313 -13.98287,-0.1064 c -2.00042,-1.0001 -2.00042,-4.0006 -1.2e-4,-5.0007 z"
         id="path1018"
         sodipodi:nodetypes="cccccccccccccccccccccccccc" />
      <path
         style="fill:#f5f5f5;fill-opacity:1;stroke:#f5f5f5;stroke-width:5;stroke-linecap:butt;stroke-linejoin:miter;stroke-miterlimit:4;stroke-dasharray:none;stroke-opacity:1"
         d="m 112.72156,1461.3164 h 50.95293 v 40.4766 c -0.47622,0.9524 -1.42859,0.9524 -1.90478,0 1.10585,-38.1447 -14.12584,-37.6825 -15.71446,-38.0957 h -13.80967 v 57.1435 h 9.04772 c 7.26156,-1.1805 10.0001,-8.0953 10.0001,-20.0002 0.4762,-0.4762 1.42859,-0.4762 1.90478,0 l 0.20914,42.9426 c 0,0.4762 -1.42858,0.9524 -1.90478,0 0,-10.9525 -2.59012,-18.6566 -10.20924,-20.5614 h -9.04772 v 62.8578 c 7.05101,0 9.15272,0.069 14.76206,0 7.61913,-0.4762 19.05814,-9.3853 18.57163,-39.048 0.4762,-0.9524 1.42859,-0.9524 1.90478,0 v 42.3814 h -54.76249 c -1.33129,-0.9729 -0.95239,-2.8572 0,-3.3334 h 6.66674 l -0.009,-122.3316 -6.65761,-0.051 c -0.95245,-0.4761 -0.95245,-1.9048 -5e-5,-2.3809 z"
         id="path1018-8"
         sodipodi:nodetypes="cccccccccccccccccccccccccc" />
      <path
         style="fill:#f5f5f5;fill-opacity:1;stroke:#f5f5f5;stroke-width:3;stroke-linecap:butt;stroke-linejoin:miter;stroke-miterlimit:4;stroke-dasharray:none;stroke-opacity:1"
         d="m 301.24398,1138.4603 101.0148,1.0002 c 2.0003,0 5.00073,0 4.00059,4.0006 l -86.0126,257.0376 c 0,1.0002 1.00014,1.0002 1.00014,1.0002 h 43.0063 c 26.00381,-5.0008 37.00543,-50.0074 38.00557,-78.0115 v -22.0032 c 1.00015,-2.0003 4.00059,-2.0003 5.00073,0 v 104.0153 c 0,2.0003 0,3.0004 -2.00029,3.0004 h -114.0167 c -3.55242,-0.8506 -3.6084,-3.1845 -2.00029,-8.0012 l 86.0126,-252.0369 c 1.00014,-3.0004 1.00014,-3.0004 -2.0003,-3.0004 H 338.2494 c -24.00351,0 -34.00498,35.0051 -35.00512,72.0105 l -1e-5,14.0021 c -2.00029,2.0003 -4.00058,1.0001 -5.00073,0 v -90.8258 c 0,-2.1879 2.0003,-2.1879 3.00044,-2.1879 z"
         id="path28275"
         sodipodi:nodetypes="ccccccccccccccccccccc" />
      <path
         id="path39989"
         style="fill:#f5f5f5;fill-opacity:1;stroke:#f5f5f5;stroke-width:5;stroke-linecap:butt;stroke-linejoin:round;stroke-miterlimit:4;stroke-dasharray:none;stroke-opacity:1"
         d="m 226.05611,1460.8401 c -0.9524,0 -1.42859,0 -1.90479,1.4287 -8.54709,34.4091 -20.9526,103.8106 -20.9526,103.8106 -0.95239,6.6667 -5.71434,20.4764 -8.09533,20.4764 h -1.90478 c -1.14672,0.4605 -1.44238,2.2749 0,2.8572 h 22.38119 c 1.42859,-0.4762 1.42859,-2.381 0,-2.8572 h -3.80956 c -6.66674,-1.4286 -6.19054,-12.8573 -4.28576,-26.1908 l 3.80956,-19.524 h 22.85739 l 9.04772,41.429 c 0.47619,3.3334 0.47619,4.2858 -2.85718,4.2858 h -3.80956 c -1.42859,0 -1.42859,2.8572 0,2.8572 h 26.19076 c 1.42863,-0.4762 1.42863,-2.381 0,-2.8572 h -2.85718 c -1.04005,-0.2084 -1.22755,-0.8217 -1.42858,-1.4286 l -27.14315,-122.8584 c -0.47619,-1.4287 -0.9524,-1.4287 -1.90479,-1.4287 z m -3.80957,21.4288 10.9525,53.3339 c 0.4762,1.9048 1e-5,1.9048 -0.95239,1.9048 h -19.04783 c -1.42857,0 -1.42858,0 -0.95239,-1.9048 z" />
      <path
         style="fill:none;fill-opacity:1;stroke:#f5f5f5;stroke-width:6.01938;stroke-linecap:butt;stroke-linejoin:miter;stroke-miterlimit:4;stroke-dasharray:none;stroke-opacity:1"
         d="m 483.4444,1115.4031 c 0,-16.9802 5.01659,64.062 5.01683,88.3744 -9.3e-4,9.225 10.58507,9.0604 10.41974,-0.3861 1.73635,-67.3328 5.28297,-108.5515 5.20952,-88.3742 0,0 2.58251,17.4624 3.85947,88.3746 0.19339,10.2475 12.34858,9.8551 12.1561,0.7717 1.18862,-41.6565 1.63702,-57.4739 3.47339,-88.7604 -0.40766,-22.1845 4.58254,29.6026 6.10652,87.7413 0.4569,9.2001 10.48956,8.8716 10.28761,0.025 2.44834,-62.4075 4.80374,-87.6034 5.21705,-87.7656 0.21029,-15.1489 4.63095,61.7462 4.63097,108.0558 -2.01151,35.0969 -15.18168,39.1528 -24.69849,44.7661 l 3.08733,325.7114 c -1.54367,24.6984 -29.32947,32.4168 -30.87314,1.5436 l 7.71828,-327.255 c -15.96687,-11.3863 -26.54931,-21.0406 -27.78581,-43.2223 z"
         id="path55168"
         sodipodi:nodetypes="ccccccccccccccccc" />
      <path
         style="fill:none;stroke:#f5f5f5;stroke-width:6.17372;stroke-linecap:butt;stroke-linejoin:miter;stroke-miterlimit:4;stroke-dasharray:none;stroke-opacity:1"
         d="m 620.82977,1110.772 c 2.77427,-1.0253 7.71827,1.5437 7.71827,1.5437 l 1.54367,4.6309 c 0.98188,80.8558 -1.34211,160.4977 -0.49923,240.1352 0.86527,81.7514 2.65035,163.9625 5.13019,249.2038 0,3.0873 0,3.0873 -3.0873,3.0873 h -26.24215 c -3.08732,0 -3.08732,0 -3.08732,-3.0873 l 6.17463,-236.1793 c 0,-3.0873 -3.08731,-6.1746 -6.17463,-9.262 l -12.34925,-10.8057 c 1.60999,-141.4124 4.68079,-199.4438 30.87312,-239.2666 z"
         id="path71364"
         sodipodi:nodetypes="cccscccccccc" />
      <path
         style="fill:#f5f5f5;fill-opacity:1;stroke:#f5f5f5;stroke-width:5;stroke-linecap:butt;stroke-linejoin:miter;stroke-miterlimit:4;stroke-dasharray:none;stroke-opacity:1"
         d="m 275.58046,1503.2216 v -40.9528 c 0,-0.4763 0.47617,-0.9524 0.95239,-0.9524 h 64.2864 c 0.47617,0 0.95239,0.4761 0.95234,0.9524 l 5e-5,40.9528 c 0,1.9048 -1.90479,1.4285 -1.90479,0 l -0.47622,-14.7621 c -1.42857,-9.5239 -3.80953,-21.905 -13.80965,-24.7622 h -10.00012 c -0.47617,0 -0.95239,0.4762 -0.95239,0.9524 v 120.0013 c -0.0768,1.3222 0.47622,1.9048 0.95239,1.9048 h 6.19054 c 0.9524,0 1.42862,2.381 0,2.381 h -26.19073 c -1.42861,0 -0.95239,-2.381 -4e-5,-2.381 h 6.19054 c 0.47622,0 0.47622,-0.4762 0.47622,-0.9524 v -120.4775 c 0,-0.9524 0,-1.4286 -0.9524,-1.4286 h -10.00011 c -9.52674,3.2304 -12.00431,14.5243 -13.33346,24.7622 -0.66515,4.8746 -0.51641,9.8233 -0.47617,14.7621 0,1.4285 -1.90479,2.3809 -1.90479,0 z"
         id="path78281"
         sodipodi:nodetypes="ccccccccccccccccccccccccc" />
      <path
         style="fill:#f5f5f5;fill-opacity:1;stroke:#f5f5f5;stroke-width:5;stroke-linecap:butt;stroke-linejoin:miter;stroke-miterlimit:4;stroke-dasharray:none;stroke-opacity:1"
         d="m 412.24855,1461.7925 v 40.9529 c 5e-5,1.4286 -1.90474,1.9047 -1.90479,0 l -0.47617,-10.0001 c -1.42857,-25.7146 -11.01136,-31.6693 -18.0954,-31.4289 -9.52395,0 -12.92253,12.2464 -12.8573,20.9525 0.47617,26.667 21.90497,31.429 32.38127,45.2386 5.23819,7.143 8.09537,12.8573 8.09533,23.3336 0.95244,29.048 -13.33348,40.0004 -26.66696,40.4767 -9.04767,-0.4763 -14.21373,-4.139 -19.04779,-6.6668 -0.95239,-0.4762 -1.90479,-0.4762 -1.90479,0.4762 l -0.47617,3.3334 c -5e-5,1.9048 -1.90479,0.9524 -1.90479,0 v -46.6672 c 0,-1.9048 1.90479,-0.9524 1.90479,0 0.47617,5.2382 0.47617,11.4287 0.95234,14.2859 1.90479,21.905 10.95252,32.3813 20.95264,32.8575 13.80965,-0.4762 16.94108,-13.6218 16.66683,-26.667 -1.44004,-20.8687 -20.58764,-26.5937 -33.80989,-44.2862 -7.61911,-11.9048 -8.09533,-36.1908 -0.47617,-47.6195 3.80958,-5.7144 8.09528,-10.9525 15.23826,-11.4287 6.19054,0 11.82902,2.3137 17.61923,6.6667 0.9524,0.4762 1.90479,0.4762 1.90474,-0.4762 v -3.3334 c 5e-5,-0.9524 1.42862,-1.4285 1.90479,0 z"
         id="path87828"
         sodipodi:nodetypes="ccccccccccccccccccccccccc" />
    </g>
  </g>
</svg>
