<?xml version="1.0" encoding="UTF-8" standalone="no"?>
<!-- Created with Inkscape (http://www.inkscape.org/) -->

<svg version="1.1" id="svg824" width="1210" height="350" viewBox="0 0 1151.452 350" xmlns="http://www.w3.org/2000/svg"
   xmlns:svg="http://www.w3.org/2000/svg">
   <defs id="defs828" />
   <g id="g830">
      <g id="g96967" transform="translate(-108.74739,-1094.5676)" style="stroke:#f5f5f5;stroke-opacity:1">
         <path
            style="fill:#f5f5f5;fill-opacity:1;stroke:#f5f5f5;stroke-width:3;stroke-linecap:butt;stroke-linejoin:miter;stroke-opacity:1;stroke-miterlimit:4;stroke-dasharray:none"
            d="M 91.013321,1135.0913 H 198.02899 v 85.0124 c -1.00018,2.0003 -3.00044,2.0003 -4.00058,0 2.3226,-80.1147 -29.66828,-79.144 -33.00484,-80.0117 h -29.00425 v 120.0176 h 19.00279 c 15.25136,-2.4794 21.00307,-17.0025 21.00307,-42.0062 1.00015,-1.0001 3.00044,-1.0001 4.00059,0 l 0.43925,90.1918 c 0,1.0001 -3.00043,2.0003 -4.00058,0 0,-23.0034 -5.43999,-39.1843 -21.44233,-43.1849 h -19.00279 v 132.0194 c 14.80913,0.01 19.22332,0.145 31.00455,0 16.00234,-1.0002 40.02752,-19.7118 39.00571,-82.012 1.00015,-2.0003 3.00044,-2.0003 4.00059,0 v 89.013 H 91.013321 c -2.79609,-2.0433 -2.0003,-6.0009 0,-7.001 h 14.002049 l -0.0191,-256.9313 -13.982869,-0.1064 c -2.00042,-1.0001 -2.00042,-4.0006 -1.2e-4,-5.0007 z"
            id="path1018" />
         <path
            style="fill:#f5f5f5;fill-opacity:1;stroke:#f5f5f5;stroke-width:3;stroke-linecap:butt;stroke-linejoin:miter;stroke-opacity:1;stroke-miterlimit:4;stroke-dasharray:none"
            d="M 633.09273,1135.0913 H 740.1084 v 85.0124 c -1.00018,2.0003 -3.00044,2.0003 -4.00058,0 2.3226,-80.1146 -29.66828,-79.1439 -33.00484,-80.0117 h -29.00425 v 120.0176 h 19.00279 c 15.25136,-2.4794 21.00307,-17.0025 21.00307,-42.0061 1.00015,-1.0002 3.00044,-1.0002 4.00059,0 l 0.43925,90.1917 c 0,1.0001 -3.00043,2.0003 -4.00058,0 0,-23.0034 -5.43999,-39.1843 -21.44233,-43.1849 h -19.00279 v 132.0194 c 14.80913,0.01 19.22332,0.145 31.00455,0 16.00234,-1.0002 40.02752,-19.7118 39.00571,-82.012 1.00015,-2.0003 3.00044,-2.0003 4.00059,0 v 89.013 H 633.09273 c -2.79609,-2.0433 -2.0003,-6.0009 0,-7.001 h 14.00205 l -0.0191,-256.9313 -13.98287,-0.1064 c -2.00042,-1.0001 -2.00042,-4.0006 -1.2e-4,-5.0007 z"
            id="path1018-8" />
         <path
            style="fill:#f5f5f5;fill-opacity:1;stroke:#f5f5f5;stroke-width:3;stroke-linecap:butt;stroke-linejoin:miter;stroke-opacity:1;stroke-miterlimit:4;stroke-dasharray:none"
            d="m 281.04115,1134.0911 101.0148,1.0002 c 2.0003,0 5.00073,0 4.00059,4.0006 l -86.0126,257.0376 c 0,1.0002 1.00014,1.0002 1.00014,1.0002 h 43.0063 c 26.00381,-5.0008 37.00543,-50.0074 38.00557,-78.0115 v -22.0032 c 1.00015,-2.0003 4.00059,-2.0003 5.00073,0 v 104.0153 c 0,2.0003 0,3.0004 -2.00029,3.0004 h -114.0167 c -3.55242,-0.8506 -3.6084,-3.1845 -2.00029,-8.0012 l 86.0126,-252.0369 c 1.00014,-3.0004 1.00014,-3.0004 -2.0003,-3.0004 h -35.00513 c -24.00351,0 -34.00498,35.0051 -35.00512,72.0105 l -10e-6,14.0021 c -2.00029,2.0003 -4.00058,1.0001 -5.00073,0 v -90.8258 c 0,-2.1879 2.0003,-2.1879 3.00044,-2.1879 z"
            id="path28275" />
         <path id="path39989"
            style="fill:#f5f5f5;fill-opacity:1;stroke:#f5f5f5;stroke-width:3;stroke-linecap:butt;stroke-linejoin:round;stroke-opacity:1;stroke-miterlimit:4;stroke-dasharray:none"
            d="m 871.12759,1134.0911 c -2.00031,0 -3.00045,0 -4.00059,3.0005 -17.95134,72.2691 -44.00645,218.0319 -44.00645,218.0319 -2.00029,14.0021 -12.00173,43.0063 -17.00249,43.0063 h -4.00058 c -2.40844,0.9673 -3.02942,4.778 0,6.0009 h 47.00688 c 3.00045,-1.0001 3.00044,-5.0008 0,-6.0009 h -8.00117 c -14.00205,-3.0004 -13.0019,-27.0039 -9.00132,-55.0081 l 8.00117,-41.006 h 48.00704 l 19.00278,87.0128 c 1.00014,7.001 1.00015,9.0013 -6.00088,9.0013 h -8.00117 c -3.00044,0 -3.00044,6.0009 0,6.0009 h 55.00806 c 3.00054,-1.0002 3.00054,-5.0008 0,-6.0009 h -6.00088 c -2.18441,-0.4377 -2.57822,-1.7258 -3.00044,-3.0004 L 882.1292,1137.0916 c -1.00014,-3.0005 -2.0003,-3.0005 -4.00059,-3.0005 z m -8.00118,45.0066 23.00337,112.0164 c 1.00015,4.0006 2e-5,4.0006 -2.00029,4.0006 h -40.00586 c -3.00042,0 -3.00044,0 -2.00029,-4.0006 z" />
         <path
            style="fill:none;fill-opacity:1;stroke:#f5f5f5;stroke-width:3.9;stroke-linecap:butt;stroke-linejoin:miter;stroke-miterlimit:4;stroke-dasharray:none;stroke-opacity:1"
            d="m 461.06753,1109.0875 c 0,-11.0016 3.25029,41.5063 3.25044,57.2585 -6e-4,5.9769 6.85815,5.8703 6.75103,-0.2502 1.125,-43.6254 3.42288,-70.3313 3.37529,-57.2583 0,0 1.67323,11.314 2.50058,57.2586 0.1253,6.6394 8.00074,6.3852 7.87603,0.5 0.77012,-26.9896 1.06064,-37.2378 2.25044,-57.5086 -0.26413,-14.3735 2.96906,19.1798 3.95646,56.8483 0.29603,5.9608 6.79627,5.748 6.66542,0.016 1.5863,-40.4343 3.11238,-56.7589 3.38017,-56.864 0.13625,-9.8151 3.00043,40.0058 3.00044,70.0102 -1.30327,22.7395 -9.83633,25.3674 -16.00234,29.0043 l 2.0003,211.0309 c -1.00015,16.0023 -19.00279,21.0031 -20.00294,1.0001 l 5.00073,-212.031 c -10.34506,-7.3773 -17.2015,-13.6324 -18.00264,-28.0041 z"
            id="path55168" />
         <path
            style="fill:none;stroke:#f5f5f5;stroke-width:4;stroke-linecap:butt;stroke-linejoin:miter;stroke-miterlimit:4;stroke-dasharray:none;stroke-opacity:1"
            d="m 550.08057,1106.087 c 1.79747,-0.6643 5.00073,1.0002 5.00073,1.0002 l 1.00015,3.0004 c 0.63617,52.3871 -0.86956,103.9877 -0.32345,155.5854 0.56061,52.9674 1.71718,106.2326 3.32389,161.4611 0,2.0003 0,2.0003 -2.00029,2.0003 h -17.00249 c -2.0003,0 -2.0003,0 -2.0003,-2.0003 l 4.00059,-153.0224 c 0,-2.0003 -2.00029,-4.0006 -4.00059,-6.0009 l -8.00117,-7.0011 c 1.04312,-91.6222 3.03272,-129.2212 20.00293,-155.0227 z"
            id="path71364" />
         <path
            style="fill:#f5f5f5;fill-opacity:1;stroke:#f5f5f5;stroke-width:3;stroke-linecap:butt;stroke-linejoin:miter;stroke-miterlimit:4;stroke-dasharray:none;stroke-opacity:1"
            d="m 975.14284,1223.1042 v -86.0126 c 0,-1.0002 1.0001,-2.0003 2.0003,-2.0003 h 135.01976 c 1.0001,0 2.0003,1.0001 2.0002,2.0003 l 10e-5,86.0126 c 0,4.0006 -4.0006,3.0004 -4.0006,0 l -1.0002,-31.0046 c -3.0004,-20.0029 -8.0011,-46.0067 -29.0042,-52.0076 h -21.0031 c -1.0001,0 -2.0003,1.0002 -2.0003,2.0003 v 252.0369 c -0.1614,2.777 1.0002,4.0006 2.0003,4.0006 h 13.0019 c 2.0003,0 3.0005,5.0008 0,5.0007 l -55.008,10e-5 c -3.0005,0 -2.0003,-5.0008 -10e-5,-5.0008 h 13.0019 c 1.0002,0 1.0002,-1.0001 1.0002,-2.0003 v -253.037 c 0,-2.0003 0,-3.0005 -2.0003,-3.0005 h -21.0031 c -20.00886,6.7848 -25.21246,30.5051 -28.00406,52.0076 -1.397,10.2381 -1.0846,20.6317 -1.0001,31.0046 0,3.0004 -4.0006,5.0007 -4.0006,0 z"
            id="path78281" />
         <path
            style="fill:#f5f5f5;fill-opacity:1;stroke:#f5f5f5;stroke-width:3;stroke-linecap:butt;stroke-linejoin:miter;stroke-miterlimit:4;stroke-dasharray:none;stroke-opacity:1"
            d="m 1262.1848,1136.0914 v 86.0126 c 10e-5,3.0005 -4.0005,4.0006 -4.0006,0 l -1.0001,-21.003 c -3.0004,-54.008 -23.127,-66.5145 -38.0055,-66.0097 -20.003,0 -27.141,25.7211 -27.004,44.0064 1.0001,56.0082 46.0067,66.0097 68.0099,95.0139 11.0017,15.0022 17.0026,27.004 17.0025,49.0072 2.0004,61.009 -28.0041,84.0123 -56.0082,85.0125 -19.0027,-1.0002 -29.8529,-8.693 -40.0058,-14.0021 -2.0003,-1.0001 -4.0006,-1.0001 -4.0006,1.0002 l -1.0001,7.001 c -10e-5,4.0006 -4.0006,2.0003 -4.0006,0 v -98.0144 c 0,-4.0005 4.0006,-2.0002 4.0006,0 1.0001,11.0017 1.0001,24.0036 2.0002,30.0044 4.0006,46.0068 23.0034,68.01 44.0065,69.0102 29.0042,-1.0002 35.5811,-28.6097 35.0051,-56.0083 -3.0245,-43.8303 -43.2399,-55.8544 -71.0104,-93.0136 -16.0023,-25.0036 -17.0025,-76.0111 -1.0001,-100.0146 8.0012,-12.0018 17.0024,-23.0034 32.0047,-24.0035 13.0019,0 24.8443,4.8595 37.0054,14.002 2.0003,1.0002 4.0006,1.0002 4.0005,-1.0001 v -7.0011 c 10e-5,-2.0003 3.0005,-3.0004 4.0006,0 z"
            id="path87828" />
      </g>
   </g>
</svg>